<?xml version="1.0" standalone="no"?>
<!DOCTYPE svg PUBLIC "-//W3C//DTD SVG 20010904//EN"
 "http://www.w3.org/TR/2001/REC-SVG-20010904/DTD/svg10.dtd">
<svg version="1.0" xmlns="http://www.w3.org/2000/svg"
 width="512.000000pt" height="512.000000pt" viewBox="0 0 512.000000 512.000000"
 preserveAspectRatio="xMidYMid meet">

<g transform="translate(0.000000,512.000000) scale(0.100000,-0.100000)"
fill="#000000" stroke="none">
<path d="M825 4704 c-79 -17 -199 -66 -283 -116 -72 -42 -226 -194 -282 -277
-224 -334 -271 -808 -125 -1249 76 -227 197 -425 360 -587 192 -192 421 -311
639 -332 l68 -6 -7 -122 c-10 -170 -3 -175 160 -130 50 14 93 25 96 25 4 0 15
-35 24 -78 38 -171 121 -318 251 -443 95 -90 160 -137 364 -259 307 -184 398
-272 446 -435 37 -124 14 -354 -54 -533 -24 -62 -20 -61 77 26 67 60 70 64 86
134 9 40 19 120 22 178 10 196 -42 342 -166 473 -80 84 -151 136 -361 262
-307 185 -415 285 -500 466 -35 76 -76 228 -63 238 4 5 55 20 113 35 110 29
140 46 140 79 0 10 -30 62 -67 115 l-66 96 33 25 c110 84 186 165 270 289 l51
77 -33 25 c-66 50 -171 157 -228 232 -184 243 -281 550 -282 888 0 223 32 404
106 587 27 66 32 91 24 101 -42 50 -265 167 -388 202 -100 29 -323 37 -425 14z
m89 -300 c21 -21 20 -57 -1 -76 -10 -9 -44 -27 -76 -40 -178 -75 -305 -246
-359 -480 -28 -124 -28 -351 -1 -481 21 -96 16 -123 -23 -138 -33 -12 -67 12
-82 56 -7 22 -20 83 -28 135 -49 326 36 660 218 855 129 138 301 221 352 169z"/>
<path d="M3401 2231 c-12 -16 -21 -32 -21 -35 0 -9 109 -61 187 -89 89 -32
217 -57 294 -57 58 0 59 1 59 28 0 15 -4 32 -8 38 -4 6 -43 14 -87 18 -126 11
-265 51 -352 102 -23 13 -44 24 -47 24 -2 0 -14 -13 -25 -29z"/>
</g>
</svg>
